<svg xmlns="http://www.w3.org/2000/svg" width="80" height="80" viewBox="0 0 80 80" fill="none">
  <rect width="80" height="80" rx="10" fill="#1E88E5" opacity="0.1"/>
  <path d="M40 10C23.4315 10 10 23.4315 10 40C10 56.5685 23.4315 70 40 70C56.5685 70 70 56.5685 70 40C70 23.4315 56.5685 10 40 10Z" stroke="#1E88E5" stroke-width="4"/>
  <path d="M40 20V60" stroke="#1E88E5" stroke-width="4" stroke-linecap="round"/>
  <path d="M60 40L20 40" stroke="#1E88E5" stroke-width="4" stroke-linecap="round"/>
  <path d="M40 10C36.4485 10 32.9395 10.5865 29.6347 11.7254C26.3298 12.8644 23.2878 14.5312 20.6438 16.6349C18 18.7385 15.8132 21.2449 14.1903 24.0227C12.5675 26.8005 11.5357 29.8065 11.1444 32.9012C10.7532 35.9959 11.0096 39.1414 11.9992 42.1471C12.9889 45.1528 14.691 47.9583 16.9979 50.3784C19.3048 52.7986 22.0697 54.78 25.1301 56.2077C28.1905 57.6355 31.4833 58.4797 34.8334 58.6919" stroke="#4CAF50" stroke-width="4" stroke-linecap="round"/>
</svg>
